<!-- Generated by IcoMoon.io -->
<svg version="1.1" xmlns="http://www.w3.org/2000/svg" width="32" height="32" viewBox="0 0 32 32">
<title>tiktok</title>
<path d="M29.827 8.135c-1.801 0-3.463-0.597-4.797-1.603-1.53-1.154-2.63-2.846-3.018-4.797-0.097-0.482-0.148-0.98-0.153-1.489h-5.145v14.058l-0.006 7.7c0 2.059-1.341 3.804-3.199 4.418-0.539 0.178-1.122 0.263-1.728 0.229-0.774-0.042-1.499-0.276-2.13-0.653-1.342-0.802-2.252-2.259-2.276-3.924-0.039-2.603 2.066-4.725 4.666-4.725 0.514 0 1.007 0.084 1.468 0.236v-5.223c-0.487-0.072-0.982-0.11-1.484-0.11-2.847 0-5.51 1.183-7.413 3.315-1.439 1.611-2.302 3.667-2.435 5.822-0.174 2.832 0.862 5.523 2.871 7.509 0.295 0.292 0.605 0.562 0.929 0.812 1.723 1.325 3.829 2.044 6.047 2.044 0.501 0 0.997-0.037 1.484-0.109 2.072-0.307 3.984-1.255 5.493-2.747 1.854-1.832 2.879-4.265 2.889-6.855l-0.027-11.499c0.884 0.682 1.852 1.247 2.889 1.685 1.614 0.681 3.326 1.026 5.087 1.026v-5.122c0.001 0.001-0.013 0.001-0.014 0.001v0z"></path>
</svg>
